HIERARCHY
ROOT Hips
{
	OFFSET 0.000000 0.000000 0.000000
	CHANNELS 6 Xposition Yposition Zposition Zrotation Yrotation Xrotation 
	JOINT LHipJoint
	{
		OFFSET 0.000000 0.000000 0.000000
		CHANNELS 3 Zrotation Yrotation Xrotation
		JOINT LeftUpLeg
		{
			OFFSET 1.363060 -1.794630 0.839290
			CHANNELS 3 Zrotation Yrotation Xrotation
			JOINT LeftLeg
			{
				OFFSET 2.448110 -6.726130 0.000000
				CHANNELS 3 Zrotation Yrotation Xrotation
				JOINT LeftFoot
				{
					OFFSET 2.562200 -7.039590 0.000000
					CHANNELS 3 Zrotation Yrotation Xrotation
					JOINT LeftToeBase
					{
						OFFSET 0.157640 -0.433110 2.322550
						CHANNELS 3 Zrotation Yrotation Xrotation
						End Site
						{
							OFFSET 0.000000 0.000000 0.000000
						}
					}
				}
			}
		}
	}
	JOINT RHipJoint
	{
		OFFSET 0.000000 0.000000 0.000000
		CHANNELS 3 Zrotation Yrotation Xrotation
		JOINT RightUpLeg
		{
			OFFSET -1.305520 -1.794630 0.839290
			CHANNELS 3 Zrotation Yrotation Xrotation
			JOINT RightLeg
			{
				OFFSET -2.542530 -6.985550 0.000000
				CHANNELS 3 Zrotation Yrotation Xrotation
				JOINT RightFoot
				{
					OFFSET -2.568260 -7.056230 0.000000
					CHANNELS 3 Zrotation Yrotation Xrotation
					JOINT RightToeBase
					{
						OFFSET -0.164730 -0.452590 2.363150
						CHANNELS 3 Zrotation Yrotation Xrotation
						End Site
						{
							OFFSET 0.000000 0.000000 0.000000
						}
					}
				}
			}
		}
	}
	JOINT LowerBack
	{
		OFFSET 0.000000 0.000000 0.000000
		CHANNELS 3 Zrotation Yrotation Xrotation
		JOINT Spine
		{
			OFFSET 0.028270 2.035590 -0.193380
			CHANNELS 3 Zrotation Yrotation Xrotation
			JOINT Spine1
			{
				OFFSET 0.056720 2.048850 -0.042750
				CHANNELS 3 Zrotation Yrotation Xrotation
				JOINT Neck
				{
					OFFSET 0.000000 0.000000 0.000000
					CHANNELS 3 Zrotation Yrotation Xrotation
					JOINT Neck1
					{
						OFFSET -0.054170 1.746240 0.172020
						CHANNELS 3 Zrotation Yrotation Xrotation
						JOINT Head
						{
							OFFSET 0.104070 1.761360 -0.123970
							CHANNELS 3 Zrotation Yrotation Xrotation
							End Site
							{
								OFFSET 0.000000 0.000000 0.000000
							}
						}
					}
				}
				JOINT LeftShoulder
				{
					OFFSET 0.000000 0.000000 0.000000
					CHANNELS 3 Zrotation Yrotation Xrotation
					JOINT LeftArm
					{
						OFFSET 3.362410 1.200890 -0.311210
						CHANNELS 3 Zrotation Yrotation Xrotation
						JOINT LeftForeArm
						{
							OFFSET 4.983000 -0.000000 -0.000000
							CHANNELS 3 Zrotation Yrotation Xrotation
							JOINT LeftHand
							{
								OFFSET 3.483560 -0.000000 -0.000000
								CHANNELS 3 Zrotation Yrotation Xrotation
								JOINT LeftFingerBase
								{
									OFFSET 0.000000 0.000000 0.000000
									CHANNELS 3 Zrotation Yrotation Xrotation
									JOINT LeftHandIndex1
									{
										OFFSET 0.715260 -0.000000 -0.000000
										CHANNELS 3 Zrotation Yrotation Xrotation
										End Site
										{
											OFFSET 0.000000 0.000000 0.000000
										}
									}
								}
								JOINT LThumb
								{
									OFFSET 0.000000 0.000000 0.000000
									CHANNELS 3 Zrotation Yrotation Xrotation
									End Site
									{
										OFFSET 0.000000 0.000000 0.000000
									}
								}
							}
						}
					}
				}
				JOINT RightShoulder
				{
					OFFSET 0.000000 0.000000 0.000000
					CHANNELS 3 Zrotation Yrotation Xrotation
					JOINT RightArm
					{
						OFFSET -3.136600 1.374050 -0.404650
						CHANNELS 3 Zrotation Yrotation Xrotation
						JOINT RightForeArm
						{
							OFFSET -5.241900 -0.000000 -0.000000
							CHANNELS 3 Zrotation Yrotation Xrotation
							JOINT RightHand
							{
								OFFSET -3.444170 -0.000000 -0.000000
								CHANNELS 3 Zrotation Yrotation Xrotation
								JOINT RightFingerBase
								{
									OFFSET 0.000000 0.000000 0.000000
									CHANNELS 3 Zrotation Yrotation Xrotation
									JOINT RightHandIndex1
									{
										OFFSET -0.622530 -0.000000 -0.000000
										CHANNELS 3 Zrotation Yrotation Xrotation
										End Site
										{
											OFFSET 0.000000 0.000000 0.000000
										}
									}
								}
								JOINT RThumb
								{
									OFFSET 0.000000 0.000000 0.000000
									CHANNELS 3 Zrotation Yrotation Xrotation
									End Site
									{
										OFFSET 0.000000 0.000000 0.000000
									}
								}
							}
						}
					}
				}
			}
		}
	}
}
MOTION
Frames: 10
Frame Time: 0.008333
1.642670 18.005610 -0.017591 10.670063 85.082248 24.335287 -3.714946 0.066751 1.499469 -18.254448 4.338121 -19.085374 1.196040 5.492616 16.382730 0.815024 -1.478636 -0.082414 1.734100 -8.288700 -23.594600 -3.051416 -2.956023 0.122934 17.928531 6.283297 -6.654566 -0.643426 0.442542 1.216492 -0.112845 1.372051 2.273282 -0.252500 3.232900 -8.927900 1.299078 -0.761198 -12.573316 1.278996 -1.484343 -3.169243 -2.710534 -0.643065 4.764841 1.293768 3.506185 -18.622438 -1.493593 5.574202 16.439009 -1.852700 2.807900 8.890500 -1.344873 -7.134104 1.949735 -77.712082 -6.039424 59.696891 66.779870 -54.678270 -36.503173 1.025824 2.349059 -12.866110 19.906209 31.267068 9.262000 -7.125000 0.000000 0.000000 -14.608800 60.073500 -5.442100 2.633243 8.405583 3.058952 70.398306 6.785259 17.039442 -73.327614 57.046518 -33.857993 1.031224 1.450048 178.741096 -26.317097 -10.818304 4.373800 7.125000 0.000000 0.000000 1.484400 -40.269200 0.173200 
1.651028 18.005416 -0.005248 11.726159 85.178211 25.487079 -3.705256 0.033693 1.471839 -18.309939 4.341692 -19.072801 1.186682 5.442434 16.268394 0.819880 -1.506973 -0.020195 1.756300 -8.338900 -23.748300 -3.038679 -2.981204 0.130254 17.886290 6.230075 -6.744320 -0.644904 0.432242 1.212534 -0.123893 1.451515 2.287656 -0.276300 3.381200 -9.341800 1.191209 -0.685637 -12.580725 1.374261 -1.358150 -3.296727 -2.643427 -0.584550 4.749723 1.471050 3.933486 -18.709336 -1.826971 6.229038 16.780546 -1.882400 3.102100 9.054300 -1.293337 -7.146740 1.956274 -78.164603 -4.667630 58.826569 64.212569 -54.219338 -34.269643 1.028959 2.230774 -12.355986 18.990030 29.499579 8.341300 -7.125000 0.000000 0.000000 -14.481400 58.221500 -4.748700 2.586383 8.457396 3.091228 71.640944 5.320115 17.053711 -73.084906 57.070571 -33.682207 1.138042 1.471765 -179.672556 -26.907840 -10.826327 4.454500 7.125000 0.000000 0.000000 1.018600 -40.261600 0.119000 
1.662690 18.005610 0.007581 12.354565 85.205677 26.016256 -3.696403 0.017225 1.464054 -18.335281 4.548004 -18.926412 1.180093 5.417134 16.202187 0.851784 -1.650271 0.033498 1.711400 -8.237100 -23.436600 -3.025953 -2.989347 0.122682 17.868264 6.154313 -6.585121 -0.644840 0.429292 1.208721 -0.133268 1.525867 2.264768 -0.253900 3.241800 -8.952700 1.085677 -0.604327 -12.371738 1.521311 -1.217220 -3.377197 -2.578564 -0.516615 4.619423 1.568392 4.321911 -18.686491 -2.183883 6.839834 16.996657 -1.918600 3.366200 9.161200 -1.246035 -7.159888 1.952038 -78.669102 -3.347173 58.096416 61.818019 -53.717923 -32.230726 0.984712 2.240772 -11.882100 18.440142 29.547430 8.096700 -7.125000 0.000000 0.000000 -15.002800 58.116200 -4.886400 2.532240 8.500874 3.121379 72.923094 3.930947 16.839118 -72.430958 57.073794 -33.204847 1.266098 1.497588 -177.920165 -27.708252 -10.955447 4.625800 7.125000 0.000000 0.000000 0.389000 -40.389100 0.044200 
1.670077 18.003375 0.018660 13.715970 85.511932 27.440810 -3.683209 -0.017813 1.437717 -18.312990 4.465603 -18.885854 1.174121 5.375335 16.116125 0.866987 -1.728215 0.104861 1.740800 -8.304000 -23.641200 -3.008242 -3.022882 0.130984 17.891108 5.899265 -6.673890 -0.645031 0.420749 1.202451 -0.145733 1.617041 2.252151 -0.218200 3.006900 -8.298100 1.053452 -0.574579 -12.270465 1.605354 -1.159471 -3.538955 -2.568668 -0.491355 4.545265 1.678521 4.646239 -18.576495 -2.497550 7.327681 17.051019 -1.966800 3.575100 9.203400 -1.190684 -7.189042 1.952621 -79.014893 -2.212092 57.525508 59.660256 -53.194175 -30.414965 0.874009 2.290354 -11.371073 17.349625 30.451404 7.813400 -7.125000 0.000000 0.000000 -16.532800 58.677000 -5.626200 2.478845 8.533330 3.152021 74.261576 2.671852 16.447389 -71.383741 57.035501 -32.420864 1.404466 1.497888 -176.024983 -28.331950 -11.062479 4.761600 7.125000 0.000000 0.000000 -0.081800 -40.498000 -0.009100 
1.673284 18.001626 0.031100 16.793701 85.991862 30.704190 -3.642592 -0.082689 1.384405 -18.306253 4.009089 -18.870553 1.177402 5.325554 16.058958 0.852781 -1.688673 0.164969 1.745700 -8.314900 -23.674800 -2.960258 -3.089949 0.167983 17.853889 5.544742 -6.957931 -0.645364 0.399817 1.191148 -0.159849 1.703110 2.264591 -0.216200 2.993700 -8.261100 0.891327 -0.628723 -12.283732 1.732648 -1.196057 -3.728743 -2.474857 -0.527514 4.533671 1.817656 4.952764 -18.531169 -2.882353 7.802797 17.138445 -2.036500 3.771100 9.269600 -1.146665 -7.229997 1.958229 -79.353456 -1.110240 56.928517 57.775166 -52.679309 -28.850402 0.769943 2.336704 -10.977756 16.327316 31.295900 7.527000 -7.125000 0.000000 0.000000 -18.005100 59.191800 -6.371000 2.421062 8.552989 3.182984 75.565935 1.547852 15.954272 -70.082483 56.954638 -31.461412 1.571643 1.486483 -173.964925 -29.078993 -11.123171 4.895000 7.125000 0.000000 0.000000 -0.646000 -40.561500 -0.070700 
1.682905 18.000848 0.043249 18.987169 86.196963 32.932258 -3.604924 -0.119040 1.356288 -18.339748 3.828832 -18.778201 1.181885 5.303327 16.046415 0.848413 -1.680836 0.157083 1.720600 -8.258100 -23.500900 -2.915118 -3.124895 0.189558 17.791036 5.359456 -7.004352 -0.644111 0.386663 1.183546 -0.166188 1.732798 2.218326 -0.219100 3.013000 -8.315000 0.773428 -0.591373 -12.242101 1.800568 -1.126107 -3.784784 -2.412623 -0.503066 4.504705 1.947388 5.209051 -18.569148 -3.158577 8.211280 17.317621 -2.080100 3.947400 9.368500 -1.092965 -7.249484 1.956742 -79.684617 -0.000652 56.241871 55.851823 -52.091686 -27.268776 0.714107 2.365944 -10.773201 15.839447 31.564285 7.354000 -7.125000 0.000000 0.000000 -18.609800 59.297400 -6.641600 2.358213 8.583178 3.211549 76.933211 0.560389 15.323861 -68.489476 56.816367 -30.305281 1.765567 1.459742 -171.738341 -29.937713 -11.188283 5.049500 7.125000 0.000000 0.000000 -1.291100 -40.635500 -0.139000 
1.688931 18.001043 0.054522 20.421529 86.469236 34.398705 -3.577398 -0.139870 1.341606 -18.262222 3.642544 -18.714535 1.183413 5.287266 16.033198 0.848496 -1.690700 0.178507 1.705700 -8.224200 -23.397100 -2.882908 -3.152979 0.208386 17.847979 5.134788 -7.064911 -0.643780 0.380753 1.178683 -0.176433 1.807335 2.178274 -0.228300 3.075300 -8.488400 0.766075 -0.590543 -12.223087 1.897785 -1.116629 -3.791542 -2.421601 -0.501648 4.500449 2.102334 5.505357 -18.517372 -3.475505 8.646740 17.312706 -2.142500 4.130900 9.408700 -1.030854 -7.277376 1.952629 -79.999402 1.008264 55.498311 53.768667 -51.376532 -25.573925 0.686779 2.397155 -10.402297 15.601086 31.674346 7.262900 -7.125000 0.000000 0.000000 -18.865100 59.307800 -6.741500 2.290865 8.609750 3.231993 78.353246 -0.321023 14.650761 -66.930355 56.646158 -29.186525 1.969152 1.410005 -169.432090 -30.725349 -11.181137 5.153700 7.125000 0.000000 0.000000 -1.869600 -40.628700 -0.201600 
1.693207 18.002695 0.063172 19.618130 86.812201 33.736585 -3.586695 -0.139345 1.339321 -18.007366 3.532391 -18.837317 1.177148 5.278115 15.999767 0.878737 -1.829776 0.280898 1.702700 -8.217300 -23.376100 -2.899867 -3.165441 0.207936 18.126622 4.913990 -7.215682 -0.645619 0.387271 1.179983 -0.186650 1.905709 2.209261 -0.213000 2.971200 -8.198500 0.901198 -0.581200 -12.290158 2.126178 -1.093307 -3.848203 -2.517513 -0.483108 4.537354 2.204269 5.784113 -18.389533 -3.826126 9.048235 17.134020 -2.218900 4.289900 9.387600 -0.978485 -7.312602 1.946322 -80.231433 1.950387 55.035933 51.863822 -50.649015 -24.053010 0.719716 2.452279 -10.304208 16.354805 31.687970 7.626800 -7.125000 0.000000 0.000000 -18.086100 59.441000 -6.509400 2.219394 8.642272 3.253891 79.681346 -1.198053 13.998244 -65.504466 56.443485 -28.149773 2.155135 1.321699 -167.246404 -31.103482 -10.936019 5.061600 7.125000 0.000000 0.000000 -2.098700 -40.354400 -0.240500 
1.703898 18.003084 0.070364 19.561215 86.894959 33.699202 -3.579796 -0.146283 1.340830 -18.012013 3.921910 -18.980245 1.175308 5.270907 15.985194 0.971161 -2.255301 0.420800 1.745500 -8.314500 -23.673500 -2.897586 -3.170201 0.207228 18.196499 4.843807 -7.198116 -0.645887 0.388303 1.179509 -0.192454 1.956647 2.190355 -0.203200 2.902500 -8.007400 0.928365 -0.497106 -12.334811 2.287578 -0.968203 -3.835705 -2.552700 -0.418619 4.570950 2.209289 5.948892 -18.322703 -4.086494 9.335064 17.165334 -2.266700 4.402700 9.421800 -0.919644 -7.338409 1.937457 -80.491849 2.896780 54.534947 50.020052 -49.875929 -22.596058 0.758184 2.467924 -10.092588 16.834240 31.201082 7.740000 -7.125000 0.000000 0.000000 -17.266300 59.067600 -6.047900 2.142104 8.676877 3.274628 81.011962 -1.925514 13.095659 -63.647246 56.108081 -26.806643 2.334440 1.212398 -164.883702 -31.288215 -10.877418 5.037000 7.125000 0.000000 0.000000 -2.151900 -40.284600 -0.250300 
1.707980 18.004639 0.079305 23.236460 87.079022 37.433458 -3.499166 -0.191352 1.303711 -18.209166 4.052236 -19.065228 1.185437 5.243265 15.991096 1.023759 -2.524383 0.526965 1.811000 -8.460900 -24.122900 -2.811555 -3.209017 0.244843 18.044781 4.691860 -7.317850 -0.644823 0.367216 1.169436 -0.197405 1.961990 2.164610 -0.190400 2.810300 -7.751100 0.820784 -0.461141 -12.312797 2.330921 -0.910696 -3.855533 -2.500975 -0.409750 4.552083 2.083386 6.003544 -18.453849 -4.055852 9.492747 17.387742 -2.220800 4.475600 9.512700 -0.844965 -7.354802 1.933781 -80.802573 3.658655 53.839412 48.075298 -48.984566 -21.073758 0.740184 2.458915 -9.585936 16.338229 30.749760 7.397200 -7.125000 0.000000 0.000000 -17.433800 58.519600 -5.878200 2.060818 8.705662 3.296109 82.341129 -2.425034 12.004819 -61.253637 55.573805 -25.093800 2.500560 1.095359 -162.664047 -31.339569 -11.010702 5.096300 7.125000 0.000000 0.000000 -2.081700 -40.431300 -0.234600 
